<mxfile host="app.diagrams.net" modified="2023-05-12T20:04:06.048Z" agent="Mozilla/5.0 (Macintosh; Intel Mac OS X 10_15_7) AppleWebKit/537.36 (KHTML, like Gecko) Chrome/112.0.0.0 Safari/537.36" etag="8wSUlDxZd-Q3QLvFT4fC" version="21.2.9" type="device">
  <diagram name="PÃ¡gina-1" id="aU-SQqhUDh7mTu2FFDyx">
    <mxGraphModel dx="1475" dy="1817" grid="1" gridSize="10" guides="1" tooltips="1" connect="1" arrows="1" fold="1" page="1" pageScale="1" pageWidth="827" pageHeight="1169" math="0" shadow="0">
      <root>
        <mxCell id="0" />
        <mxCell id="1" parent="0" />
        <mxCell id="G5W-g5Hc8PgUAYtpd-jO-1" value="src" style="shape=folder;tabWidth=80;tabHeight=20;tabPosition=left;strokeWidth=2;html=1;whiteSpace=wrap;align=center;" vertex="1" parent="1">
          <mxGeometry x="333" y="539" width="160" height="90" as="geometry" />
        </mxCell>
        <mxCell id="G5W-g5Hc8PgUAYtpd-jO-2" value="app" style="shape=folder;tabWidth=80;tabHeight=20;tabPosition=left;strokeWidth=2;html=1;whiteSpace=wrap;align=center;" vertex="1" parent="1">
          <mxGeometry x="70" y="539" width="160" height="90" as="geometry" />
        </mxCell>
        <mxCell id="G5W-g5Hc8PgUAYtpd-jO-3" value="" style="edgeStyle=none;html=1;endSize=12;endArrow=block;endFill=0;dashed=1;rounded=0;exitX=0;exitY=0;exitDx=160;exitDy=55;exitPerimeter=0;entryX=0;entryY=0;entryDx=0;entryDy=55;entryPerimeter=0;" edge="1" parent="1" source="G5W-g5Hc8PgUAYtpd-jO-2" target="G5W-g5Hc8PgUAYtpd-jO-1">
          <mxGeometry width="160" relative="1" as="geometry">
            <mxPoint x="230" y="590" as="sourcePoint" />
            <mxPoint x="390" y="590" as="targetPoint" />
          </mxGeometry>
        </mxCell>
        <mxCell id="G5W-g5Hc8PgUAYtpd-jO-4" value="assets" style="shape=folder;tabWidth=80;tabHeight=20;tabPosition=left;strokeWidth=2;html=1;whiteSpace=wrap;align=center;" vertex="1" parent="1">
          <mxGeometry x="300" y="330" width="160" height="90" as="geometry" />
        </mxCell>
        <mxCell id="G5W-g5Hc8PgUAYtpd-jO-6" value="" style="edgeStyle=orthogonalEdgeStyle;html=1;endSize=12;endArrow=block;endFill=0;dashed=1;rounded=0;exitX=0.5;exitY=1;exitDx=0;exitDy=0;exitPerimeter=0;entryX=0;entryY=0;entryDx=80;entryDy=0;entryPerimeter=0;" edge="1" parent="1" source="G5W-g5Hc8PgUAYtpd-jO-4" target="G5W-g5Hc8PgUAYtpd-jO-2">
          <mxGeometry width="160" relative="1" as="geometry">
            <mxPoint x="390" y="670" as="sourcePoint" />
            <mxPoint x="380.0000000000002" y="529" as="targetPoint" />
          </mxGeometry>
        </mxCell>
        <mxCell id="G5W-g5Hc8PgUAYtpd-jO-7" value="cerra-sesion" style="shape=folder;tabWidth=80;tabHeight=20;tabPosition=left;strokeWidth=2;html=1;whiteSpace=wrap;align=center;" vertex="1" parent="1">
          <mxGeometry x="-160" y="730" width="160" height="90" as="geometry" />
        </mxCell>
        <mxCell id="G5W-g5Hc8PgUAYtpd-jO-8" value="error" style="shape=folder;tabWidth=80;tabHeight=20;tabPosition=left;strokeWidth=2;html=1;whiteSpace=wrap;align=center;" vertex="1" parent="1">
          <mxGeometry x="70" y="730" width="160" height="90" as="geometry" />
        </mxCell>
        <mxCell id="G5W-g5Hc8PgUAYtpd-jO-9" value="inicio-sesion" style="shape=folder;tabWidth=80;tabHeight=20;tabPosition=left;strokeWidth=2;html=1;whiteSpace=wrap;align=center;" vertex="1" parent="1">
          <mxGeometry x="280" y="730" width="160" height="90" as="geometry" />
        </mxCell>
        <mxCell id="G5W-g5Hc8PgUAYtpd-jO-10" value="cargar-datos" style="shape=folder;tabWidth=80;tabHeight=20;tabPosition=left;strokeWidth=2;html=1;whiteSpace=wrap;align=center;" vertex="1" parent="1">
          <mxGeometry x="-250" y="480" width="160" height="90" as="geometry" />
        </mxCell>
        <mxCell id="G5W-g5Hc8PgUAYtpd-jO-11" value="menus" style="shape=folder;tabWidth=80;tabHeight=20;tabPosition=left;strokeWidth=2;html=1;whiteSpace=wrap;align=center;" vertex="1" parent="1">
          <mxGeometry x="70" y="332.67" width="160" height="90" as="geometry" />
        </mxCell>
        <mxCell id="G5W-g5Hc8PgUAYtpd-jO-12" value="navbars" style="shape=folder;tabWidth=80;tabHeight=20;tabPosition=left;strokeWidth=2;html=1;whiteSpace=wrap;align=center;" vertex="1" parent="1">
          <mxGeometry x="-180" y="332.67" width="160" height="90" as="geometry" />
        </mxCell>
        <mxCell id="G5W-g5Hc8PgUAYtpd-jO-13" value="" style="shape=stencil(fZbdcgIhDIWfZm8zQAg/17Z9j85U606tdqz9e/tmZ0c0uJ47xP0I5JwEBl59bp8/1kNwn6fj4W39M76ctgM/DCGM++36OJ50NPDjwKvN4bh+PR6+9i/z74/n6ctp9H74nlb4nbmSKZeJCu5vngmZ6jzzNAO7cX8FVKEsBuBKrgKg9oAE8gkCbLeUhEoEQKSUDZDLeWYRKIl8MEDRmHwfyBrBG6Amyu4+kDxxMoB3jhwgYu7TVAsVkFcWCs4CTBEoF4RctKeOxHIf8IXYpikHikAIf+MNUW94AGSSaoAoFIE3AlOyeWU+p2E5S9yfQZcQILVuQOwZdJNoS9Ls3wA5u2XZTIHECqeJ9kDpSaauRiNVcAY1QhdBzeLBli5WazpkSsBLV25uRaqWRyFawTQzRRIQYirJzq5atkBqLfouwqUxLBepthWb10vrWZY6UOAeyKCCtDV625mm9gmUC4Wc3VLJMMIE1BsA2FW9JraVlQB7n3c9oMKhCLEvIM1zBPZ25/umNQ1tVEC2G+fFCC8g398O2hNQuQlVu752DBfA+q0ptnqO5JFmeuIuo9DY7KjY71UxdJV4EntifPWorW++R/dC4t7V3DlIB5cHx2bc7eb3yvX//QNFp+bHDT/+Aw==);lineShape=1;" vertex="1" parent="1">
          <mxGeometry x="180.3899673687299" y="375.7294270487662" width="3.8937831434293457" height="3.88769684696437" as="geometry" />
        </mxCell>
        <mxCell id="G5W-g5Hc8PgUAYtpd-jO-14" value="registro" style="shape=folder;tabWidth=80;tabHeight=20;tabPosition=left;strokeWidth=2;html=1;whiteSpace=wrap;align=center;" vertex="1" parent="1">
          <mxGeometry x="-250" y="585" width="160" height="90" as="geometry" />
        </mxCell>
        <mxCell id="G5W-g5Hc8PgUAYtpd-jO-15" value="" style="edgeStyle=orthogonalEdgeStyle;html=1;endSize=12;endArrow=block;endFill=0;dashed=1;rounded=0;exitX=0;exitY=0;exitDx=80;exitDy=0;exitPerimeter=0;" edge="1" parent="1" source="G5W-g5Hc8PgUAYtpd-jO-8">
          <mxGeometry width="160" relative="1" as="geometry">
            <mxPoint x="200" y="640" as="sourcePoint" />
            <mxPoint x="150" y="630" as="targetPoint" />
          </mxGeometry>
        </mxCell>
        <mxCell id="G5W-g5Hc8PgUAYtpd-jO-16" value="" style="edgeStyle=orthogonalEdgeStyle;html=1;endSize=12;endArrow=block;endFill=0;dashed=1;rounded=0;exitX=0;exitY=0;exitDx=80;exitDy=0;exitPerimeter=0;" edge="1" parent="1" source="G5W-g5Hc8PgUAYtpd-jO-9">
          <mxGeometry width="160" relative="1" as="geometry">
            <mxPoint x="160" y="740" as="sourcePoint" />
            <mxPoint x="150" y="630" as="targetPoint" />
          </mxGeometry>
        </mxCell>
        <mxCell id="G5W-g5Hc8PgUAYtpd-jO-17" value="" style="edgeStyle=orthogonalEdgeStyle;html=1;endSize=12;endArrow=block;endFill=0;dashed=1;rounded=0;exitX=0;exitY=0;exitDx=80;exitDy=0;exitPerimeter=0;entryX=0.5;entryY=1;entryDx=0;entryDy=0;entryPerimeter=0;" edge="1" parent="1" source="G5W-g5Hc8PgUAYtpd-jO-7" target="G5W-g5Hc8PgUAYtpd-jO-2">
          <mxGeometry width="160" relative="1" as="geometry">
            <mxPoint x="60" y="741" as="sourcePoint" />
            <mxPoint x="-70" y="640" as="targetPoint" />
          </mxGeometry>
        </mxCell>
        <mxCell id="G5W-g5Hc8PgUAYtpd-jO-19" value="" style="edgeStyle=orthogonalEdgeStyle;html=1;endSize=12;endArrow=block;endFill=0;dashed=1;rounded=0;exitX=0.5;exitY=1;exitDx=0;exitDy=0;exitPerimeter=0;entryX=0;entryY=0;entryDx=80;entryDy=0;entryPerimeter=0;" edge="1" parent="1" source="G5W-g5Hc8PgUAYtpd-jO-11" target="G5W-g5Hc8PgUAYtpd-jO-2">
          <mxGeometry width="160" relative="1" as="geometry">
            <mxPoint x="240" y="551" as="sourcePoint" />
            <mxPoint x="150" y="530" as="targetPoint" />
          </mxGeometry>
        </mxCell>
        <mxCell id="G5W-g5Hc8PgUAYtpd-jO-20" value="" style="edgeStyle=orthogonalEdgeStyle;html=1;endSize=12;endArrow=block;endFill=0;dashed=1;rounded=0;exitX=0;exitY=0;exitDx=160;exitDy=55;exitPerimeter=0;entryX=0;entryY=0;entryDx=0;entryDy=55;entryPerimeter=0;" edge="1" parent="1" source="G5W-g5Hc8PgUAYtpd-jO-14" target="G5W-g5Hc8PgUAYtpd-jO-2">
          <mxGeometry width="160" relative="1" as="geometry">
            <mxPoint x="-580" y="520" as="sourcePoint" />
            <mxPoint x="-477" y="520" as="targetPoint" />
          </mxGeometry>
        </mxCell>
        <mxCell id="G5W-g5Hc8PgUAYtpd-jO-21" value="" style="edgeStyle=orthogonalEdgeStyle;html=1;endSize=12;endArrow=block;endFill=0;dashed=1;rounded=0;exitX=0.5;exitY=1;exitDx=0;exitDy=0;exitPerimeter=0;entryX=0;entryY=0;entryDx=80;entryDy=0;entryPerimeter=0;" edge="1" parent="1" source="G5W-g5Hc8PgUAYtpd-jO-12" target="G5W-g5Hc8PgUAYtpd-jO-2">
          <mxGeometry width="160" relative="1" as="geometry">
            <mxPoint x="-40" y="605" as="sourcePoint" />
            <mxPoint x="380" y="530" as="targetPoint" />
          </mxGeometry>
        </mxCell>
        <mxCell id="G5W-g5Hc8PgUAYtpd-jO-24" value="tiene Acceso" style="edgeLabel;html=1;align=center;verticalAlign=middle;resizable=0;points=[];" vertex="1" connectable="0" parent="G5W-g5Hc8PgUAYtpd-jO-21">
          <mxGeometry x="0.0792" y="1" relative="1" as="geometry">
            <mxPoint as="offset" />
          </mxGeometry>
        </mxCell>
        <mxCell id="G5W-g5Hc8PgUAYtpd-jO-23" value="" style="edgeStyle=orthogonalEdgeStyle;html=1;endSize=12;endArrow=block;endFill=0;dashed=1;rounded=0;entryX=0;entryY=0;entryDx=0;entryDy=55;entryPerimeter=0;" edge="1" parent="1" target="G5W-g5Hc8PgUAYtpd-jO-2">
          <mxGeometry width="160" relative="1" as="geometry">
            <mxPoint x="-90" y="530" as="sourcePoint" />
            <mxPoint x="70" y="530" as="targetPoint" />
          </mxGeometry>
        </mxCell>
        <mxCell id="G5W-g5Hc8PgUAYtpd-jO-25" value="menu-admin" style="shape=folder;tabWidth=80;tabHeight=20;tabPosition=left;strokeWidth=2;html=1;whiteSpace=wrap;align=center;" vertex="1" parent="1">
          <mxGeometry x="-200" y="40" width="160" height="90" as="geometry" />
        </mxCell>
        <mxCell id="G5W-g5Hc8PgUAYtpd-jO-26" value="navbar-incio" style="shape=folder;tabWidth=80;tabHeight=20;tabPosition=left;strokeWidth=2;html=1;whiteSpace=wrap;align=center;" vertex="1" parent="1">
          <mxGeometry x="-520" y="190.00000000000003" width="160" height="90" as="geometry" />
        </mxCell>
        <mxCell id="G5W-g5Hc8PgUAYtpd-jO-27" value="menu-paciente" style="shape=folder;tabWidth=80;tabHeight=20;tabPosition=left;strokeWidth=2;html=1;whiteSpace=wrap;align=center;" vertex="1" parent="1">
          <mxGeometry x="110" y="40" width="160" height="90" as="geometry" />
        </mxCell>
        <mxCell id="G5W-g5Hc8PgUAYtpd-jO-28" value="menu-laboratorio" style="shape=folder;tabWidth=80;tabHeight=20;tabPosition=left;strokeWidth=2;html=1;whiteSpace=wrap;align=center;" vertex="1" parent="1">
          <mxGeometry x="380" y="40" width="160" height="90" as="geometry" />
        </mxCell>
        <mxCell id="G5W-g5Hc8PgUAYtpd-jO-29" value="navbar-admin" style="shape=folder;tabWidth=80;tabHeight=20;tabPosition=left;strokeWidth=2;html=1;whiteSpace=wrap;align=center;" vertex="1" parent="1">
          <mxGeometry x="-520" y="330" width="160" height="90" as="geometry" />
        </mxCell>
        <mxCell id="G5W-g5Hc8PgUAYtpd-jO-30" value="navbar-admin" style="shape=folder;tabWidth=80;tabHeight=20;tabPosition=left;strokeWidth=2;html=1;whiteSpace=wrap;align=center;" vertex="1" parent="1">
          <mxGeometry x="-520" y="680" width="160" height="90" as="geometry" />
        </mxCell>
        <mxCell id="G5W-g5Hc8PgUAYtpd-jO-31" value="navbar-medico" style="shape=folder;tabWidth=80;tabHeight=20;tabPosition=left;strokeWidth=2;html=1;whiteSpace=wrap;align=center;" vertex="1" parent="1">
          <mxGeometry x="-520" y="560" width="160" height="90" as="geometry" />
        </mxCell>
        <mxCell id="G5W-g5Hc8PgUAYtpd-jO-32" value="navbar-laboratorio" style="shape=folder;tabWidth=80;tabHeight=20;tabPosition=left;strokeWidth=2;html=1;whiteSpace=wrap;align=center;" vertex="1" parent="1">
          <mxGeometry x="-520" y="440" width="160" height="90" as="geometry" />
        </mxCell>
        <mxCell id="G5W-g5Hc8PgUAYtpd-jO-33" value="menu-medico" style="shape=folder;tabWidth=80;tabHeight=20;tabPosition=left;strokeWidth=2;html=1;whiteSpace=wrap;align=center;" vertex="1" parent="1">
          <mxGeometry x="667" y="40" width="160" height="90" as="geometry" />
        </mxCell>
        <mxCell id="G5W-g5Hc8PgUAYtpd-jO-35" value="" style="edgeStyle=none;html=1;endSize=12;endArrow=block;endFill=0;dashed=1;rounded=0;exitX=0;exitY=0;exitDx=160;exitDy=55;exitPerimeter=0;entryX=0;entryY=0;entryDx=0;entryDy=55;entryPerimeter=0;" edge="1" parent="1" source="G5W-g5Hc8PgUAYtpd-jO-29" target="G5W-g5Hc8PgUAYtpd-jO-12">
          <mxGeometry width="160" relative="1" as="geometry">
            <mxPoint x="-360" y="390" as="sourcePoint" />
            <mxPoint x="-200" y="390" as="targetPoint" />
          </mxGeometry>
        </mxCell>
        <mxCell id="G5W-g5Hc8PgUAYtpd-jO-36" value="" style="edgeStyle=orthogonalEdgeStyle;html=1;endSize=12;endArrow=block;endFill=0;dashed=1;rounded=0;entryX=0;entryY=0;entryDx=0;entryDy=55;entryPerimeter=0;exitX=0;exitY=0;exitDx=160;exitDy=55;exitPerimeter=0;" edge="1" parent="1" source="G5W-g5Hc8PgUAYtpd-jO-32" target="G5W-g5Hc8PgUAYtpd-jO-12">
          <mxGeometry width="160" relative="1" as="geometry">
            <mxPoint x="-350" y="395" as="sourcePoint" />
            <mxPoint x="-170" y="398" as="targetPoint" />
          </mxGeometry>
        </mxCell>
        <mxCell id="G5W-g5Hc8PgUAYtpd-jO-37" value="" style="edgeStyle=orthogonalEdgeStyle;html=1;endSize=12;endArrow=block;endFill=0;dashed=1;rounded=0;exitX=0;exitY=0;exitDx=160;exitDy=55;exitPerimeter=0;entryX=0;entryY=0;entryDx=0;entryDy=55;entryPerimeter=0;" edge="1" parent="1" source="G5W-g5Hc8PgUAYtpd-jO-26" target="G5W-g5Hc8PgUAYtpd-jO-12">
          <mxGeometry width="160" relative="1" as="geometry">
            <mxPoint x="-310" y="260" as="sourcePoint" />
            <mxPoint x="-150" y="260" as="targetPoint" />
          </mxGeometry>
        </mxCell>
        <mxCell id="G5W-g5Hc8PgUAYtpd-jO-38" value="" style="edgeStyle=orthogonalEdgeStyle;html=1;endSize=12;endArrow=block;endFill=0;dashed=1;rounded=0;exitX=0;exitY=0;exitDx=160;exitDy=55;exitPerimeter=0;entryX=0;entryY=0;entryDx=0;entryDy=55;entryPerimeter=0;" edge="1" parent="1" source="G5W-g5Hc8PgUAYtpd-jO-31" target="G5W-g5Hc8PgUAYtpd-jO-12">
          <mxGeometry width="160" relative="1" as="geometry">
            <mxPoint x="-360" y="610" as="sourcePoint" />
            <mxPoint x="-200" y="620" as="targetPoint" />
          </mxGeometry>
        </mxCell>
        <mxCell id="G5W-g5Hc8PgUAYtpd-jO-39" value="" style="edgeStyle=orthogonalEdgeStyle;html=1;endSize=12;endArrow=block;endFill=0;dashed=1;rounded=0;exitX=0;exitY=0;exitDx=160;exitDy=55;exitPerimeter=0;entryX=0;entryY=0;entryDx=0;entryDy=55;entryPerimeter=0;" edge="1" parent="1" source="G5W-g5Hc8PgUAYtpd-jO-30" target="G5W-g5Hc8PgUAYtpd-jO-12">
          <mxGeometry width="160" relative="1" as="geometry">
            <mxPoint x="-360" y="750" as="sourcePoint" />
            <mxPoint x="-200" y="750" as="targetPoint" />
          </mxGeometry>
        </mxCell>
        <mxCell id="G5W-g5Hc8PgUAYtpd-jO-40" value="" style="edgeStyle=orthogonalEdgeStyle;html=1;endSize=12;endArrow=block;endFill=0;dashed=1;rounded=0;exitX=0.5;exitY=1;exitDx=0;exitDy=0;exitPerimeter=0;entryX=0;entryY=0;entryDx=80;entryDy=0;entryPerimeter=0;" edge="1" parent="1" source="G5W-g5Hc8PgUAYtpd-jO-25" target="G5W-g5Hc8PgUAYtpd-jO-11">
          <mxGeometry width="160" relative="1" as="geometry">
            <mxPoint x="-160" y="230" as="sourcePoint" />
            <mxPoint y="230" as="targetPoint" />
          </mxGeometry>
        </mxCell>
        <mxCell id="G5W-g5Hc8PgUAYtpd-jO-41" value="" style="edgeStyle=orthogonalEdgeStyle;html=1;endSize=12;endArrow=block;endFill=0;dashed=1;rounded=0;exitX=0.5;exitY=1;exitDx=0;exitDy=0;exitPerimeter=0;entryX=0;entryY=0;entryDx=80;entryDy=0;entryPerimeter=0;" edge="1" parent="1" source="G5W-g5Hc8PgUAYtpd-jO-27" target="G5W-g5Hc8PgUAYtpd-jO-11">
          <mxGeometry width="160" relative="1" as="geometry">
            <mxPoint x="150" y="160" as="sourcePoint" />
            <mxPoint x="310" y="160" as="targetPoint" />
          </mxGeometry>
        </mxCell>
        <mxCell id="G5W-g5Hc8PgUAYtpd-jO-43" value="" style="edgeStyle=orthogonalEdgeStyle;html=1;endSize=12;endArrow=block;endFill=0;dashed=1;rounded=0;exitX=0.5;exitY=1;exitDx=0;exitDy=0;exitPerimeter=0;entryX=0;entryY=0;entryDx=80;entryDy=0;entryPerimeter=0;" edge="1" parent="1" source="G5W-g5Hc8PgUAYtpd-jO-28" target="G5W-g5Hc8PgUAYtpd-jO-11">
          <mxGeometry width="160" relative="1" as="geometry">
            <mxPoint x="350" y="190" as="sourcePoint" />
            <mxPoint x="510" y="190" as="targetPoint" />
          </mxGeometry>
        </mxCell>
        <mxCell id="G5W-g5Hc8PgUAYtpd-jO-44" value="" style="edgeStyle=orthogonalEdgeStyle;html=1;endSize=12;endArrow=block;endFill=0;dashed=1;rounded=0;exitX=0.5;exitY=1;exitDx=0;exitDy=0;exitPerimeter=0;entryX=0;entryY=0;entryDx=80;entryDy=0;entryPerimeter=0;" edge="1" parent="1" source="G5W-g5Hc8PgUAYtpd-jO-33" target="G5W-g5Hc8PgUAYtpd-jO-11">
          <mxGeometry width="160" relative="1" as="geometry">
            <mxPoint x="500" y="180" as="sourcePoint" />
            <mxPoint x="660" y="180" as="targetPoint" />
          </mxGeometry>
        </mxCell>
        <mxCell id="G5W-g5Hc8PgUAYtpd-jO-45" value="porcentajes" style="shape=folder;tabWidth=80;tabHeight=20;tabPosition=left;strokeWidth=2;html=1;whiteSpace=wrap;align=center;" vertex="1" parent="1">
          <mxGeometry x="-340" y="-260" width="160" height="90" as="geometry" />
        </mxCell>
        <mxCell id="G5W-g5Hc8PgUAYtpd-jO-46" value="menu-inicio-admin" style="shape=folder;tabWidth=80;tabHeight=20;tabPosition=left;strokeWidth=2;html=1;whiteSpace=wrap;align=center;" vertex="1" parent="1">
          <mxGeometry x="-340" y="-130" width="160" height="90" as="geometry" />
        </mxCell>
        <mxCell id="G5W-g5Hc8PgUAYtpd-jO-47" value="" style="edgeStyle=orthogonalEdgeStyle;html=1;endSize=12;endArrow=block;endFill=0;dashed=1;rounded=0;exitX=0;exitY=0;exitDx=160;exitDy=55;exitPerimeter=0;entryX=0;entryY=0;entryDx=80;entryDy=0;entryPerimeter=0;" edge="1" parent="1" source="G5W-g5Hc8PgUAYtpd-jO-46" target="G5W-g5Hc8PgUAYtpd-jO-25">
          <mxGeometry width="160" relative="1" as="geometry">
            <mxPoint x="-150" y="-30" as="sourcePoint" />
            <mxPoint x="10" y="-30" as="targetPoint" />
          </mxGeometry>
        </mxCell>
        <mxCell id="G5W-g5Hc8PgUAYtpd-jO-48" value="" style="edgeStyle=orthogonalEdgeStyle;html=1;endSize=12;endArrow=block;endFill=0;dashed=1;rounded=0;exitX=0;exitY=0;exitDx=160;exitDy=55;exitPerimeter=0;entryX=0;entryY=0;entryDx=80;entryDy=0;entryPerimeter=0;" edge="1" parent="1" source="G5W-g5Hc8PgUAYtpd-jO-45" target="G5W-g5Hc8PgUAYtpd-jO-25">
          <mxGeometry width="160" relative="1" as="geometry">
            <mxPoint x="-170" y="-65" as="sourcePoint" />
            <mxPoint x="-60" y="50" as="targetPoint" />
          </mxGeometry>
        </mxCell>
        <mxCell id="G5W-g5Hc8PgUAYtpd-jO-49" value="reportes" style="shape=folder;tabWidth=80;tabHeight=20;tabPosition=left;strokeWidth=2;html=1;whiteSpace=wrap;align=center;" vertex="1" parent="1">
          <mxGeometry x="-340" y="-380" width="160" height="90" as="geometry" />
        </mxCell>
        <mxCell id="G5W-g5Hc8PgUAYtpd-jO-50" value="solicitudes" style="shape=folder;tabWidth=80;tabHeight=20;tabPosition=left;strokeWidth=2;html=1;whiteSpace=wrap;align=center;" vertex="1" parent="1">
          <mxGeometry x="-340" y="-500" width="160" height="90" as="geometry" />
        </mxCell>
        <mxCell id="G5W-g5Hc8PgUAYtpd-jO-51" value="" style="edgeStyle=orthogonalEdgeStyle;html=1;endSize=12;endArrow=block;endFill=0;dashed=1;rounded=0;exitX=0;exitY=0;exitDx=160;exitDy=55;exitPerimeter=0;entryX=0;entryY=0;entryDx=80;entryDy=0;entryPerimeter=0;" edge="1" parent="1" source="G5W-g5Hc8PgUAYtpd-jO-49" target="G5W-g5Hc8PgUAYtpd-jO-25">
          <mxGeometry width="160" relative="1" as="geometry">
            <mxPoint x="-170" y="-195" as="sourcePoint" />
            <mxPoint x="-60" y="50" as="targetPoint" />
          </mxGeometry>
        </mxCell>
        <mxCell id="G5W-g5Hc8PgUAYtpd-jO-52" value="" style="edgeStyle=orthogonalEdgeStyle;html=1;endSize=12;endArrow=block;endFill=0;dashed=1;rounded=0;exitX=0;exitY=0;exitDx=160;exitDy=55;exitPerimeter=0;entryX=0;entryY=0;entryDx=80;entryDy=0;entryPerimeter=0;" edge="1" parent="1" source="G5W-g5Hc8PgUAYtpd-jO-50" target="G5W-g5Hc8PgUAYtpd-jO-25">
          <mxGeometry width="160" relative="1" as="geometry">
            <mxPoint x="-170" y="-315" as="sourcePoint" />
            <mxPoint x="-60" y="50" as="targetPoint" />
          </mxGeometry>
        </mxCell>
        <mxCell id="G5W-g5Hc8PgUAYtpd-jO-53" value="recarga" style="shape=folder;tabWidth=80;tabHeight=20;tabPosition=left;strokeWidth=2;html=1;whiteSpace=wrap;align=center;" vertex="1" parent="1">
          <mxGeometry x="-40" y="-260" width="160" height="90" as="geometry" />
        </mxCell>
        <mxCell id="G5W-g5Hc8PgUAYtpd-jO-54" value="reportes" style="shape=folder;tabWidth=80;tabHeight=20;tabPosition=left;strokeWidth=2;html=1;whiteSpace=wrap;align=center;" vertex="1" parent="1">
          <mxGeometry x="-40" y="-130" width="160" height="90" as="geometry" />
        </mxCell>
        <mxCell id="G5W-g5Hc8PgUAYtpd-jO-55" value="menu-inicio-paciente" style="shape=folder;tabWidth=80;tabHeight=20;tabPosition=left;strokeWidth=2;html=1;whiteSpace=wrap;align=center;" vertex="1" parent="1">
          <mxGeometry x="-40" y="-380" width="160" height="90" as="geometry" />
        </mxCell>
        <mxCell id="G5W-g5Hc8PgUAYtpd-jO-56" value="consulta" style="shape=folder;tabWidth=80;tabHeight=20;tabPosition=left;strokeWidth=2;html=1;whiteSpace=wrap;align=center;" vertex="1" parent="1">
          <mxGeometry x="-40" y="-500" width="160" height="90" as="geometry" />
        </mxCell>
        <mxCell id="G5W-g5Hc8PgUAYtpd-jO-57" value="" style="edgeStyle=orthogonalEdgeStyle;html=1;endSize=12;endArrow=block;endFill=0;dashed=1;rounded=0;exitX=0;exitY=0;exitDx=160;exitDy=55;exitPerimeter=0;entryX=0;entryY=0;entryDx=80;entryDy=0;entryPerimeter=0;" edge="1" parent="1" source="G5W-g5Hc8PgUAYtpd-jO-56" target="G5W-g5Hc8PgUAYtpd-jO-27">
          <mxGeometry width="160" relative="1" as="geometry">
            <mxPoint x="130" y="-445" as="sourcePoint" />
            <mxPoint x="190" y="40" as="targetPoint" />
          </mxGeometry>
        </mxCell>
        <mxCell id="G5W-g5Hc8PgUAYtpd-jO-58" value="" style="edgeStyle=orthogonalEdgeStyle;html=1;endSize=12;endArrow=block;endFill=0;dashed=1;rounded=0;exitX=0;exitY=0;exitDx=160;exitDy=55;exitPerimeter=0;entryX=0;entryY=0;entryDx=80;entryDy=0;entryPerimeter=0;" edge="1" parent="1" source="G5W-g5Hc8PgUAYtpd-jO-55" target="G5W-g5Hc8PgUAYtpd-jO-27">
          <mxGeometry width="160" relative="1" as="geometry">
            <mxPoint x="130" y="-435" as="sourcePoint" />
            <mxPoint x="200" y="50" as="targetPoint" />
          </mxGeometry>
        </mxCell>
        <mxCell id="G5W-g5Hc8PgUAYtpd-jO-59" value="" style="edgeStyle=orthogonalEdgeStyle;html=1;endSize=12;endArrow=block;endFill=0;dashed=1;rounded=0;exitX=0;exitY=0;exitDx=160;exitDy=55;exitPerimeter=0;entryX=0;entryY=0;entryDx=80;entryDy=0;entryPerimeter=0;" edge="1" parent="1" source="G5W-g5Hc8PgUAYtpd-jO-53" target="G5W-g5Hc8PgUAYtpd-jO-27">
          <mxGeometry width="160" relative="1" as="geometry">
            <mxPoint x="130" y="-315" as="sourcePoint" />
            <mxPoint x="200" y="50" as="targetPoint" />
          </mxGeometry>
        </mxCell>
        <mxCell id="G5W-g5Hc8PgUAYtpd-jO-60" value="" style="edgeStyle=orthogonalEdgeStyle;html=1;endSize=12;endArrow=block;endFill=0;dashed=1;rounded=0;exitX=0;exitY=0;exitDx=160;exitDy=55;exitPerimeter=0;" edge="1" parent="1" source="G5W-g5Hc8PgUAYtpd-jO-54">
          <mxGeometry width="160" relative="1" as="geometry">
            <mxPoint x="140" y="-305" as="sourcePoint" />
            <mxPoint x="190" y="40" as="targetPoint" />
          </mxGeometry>
        </mxCell>
        <mxCell id="G5W-g5Hc8PgUAYtpd-jO-61" value="reportes" style="shape=folder;tabWidth=80;tabHeight=20;tabPosition=left;strokeWidth=2;html=1;whiteSpace=wrap;align=center;" vertex="1" parent="1">
          <mxGeometry x="230" y="-260" width="160" height="90" as="geometry" />
        </mxCell>
        <mxCell id="G5W-g5Hc8PgUAYtpd-jO-62" value="menu-inicio-laboratorio" style="shape=folder;tabWidth=80;tabHeight=20;tabPosition=left;strokeWidth=2;html=1;whiteSpace=wrap;align=center;" vertex="1" parent="1">
          <mxGeometry x="230" y="-130" width="160" height="90" as="geometry" />
        </mxCell>
        <mxCell id="G5W-g5Hc8PgUAYtpd-jO-67" value="" style="edgeStyle=orthogonalEdgeStyle;html=1;endSize=12;endArrow=block;endFill=0;dashed=1;rounded=0;exitX=0;exitY=0;exitDx=160;exitDy=55;exitPerimeter=0;entryX=0;entryY=0;entryDx=80;entryDy=0;entryPerimeter=0;" edge="1" parent="1" source="G5W-g5Hc8PgUAYtpd-jO-61" target="G5W-g5Hc8PgUAYtpd-jO-28">
          <mxGeometry width="160" relative="1" as="geometry">
            <mxPoint x="410" y="-425" as="sourcePoint" />
            <mxPoint x="480" y="60" as="targetPoint" />
          </mxGeometry>
        </mxCell>
        <mxCell id="G5W-g5Hc8PgUAYtpd-jO-68" value="" style="edgeStyle=orthogonalEdgeStyle;html=1;endSize=12;endArrow=block;endFill=0;dashed=1;rounded=0;exitX=0;exitY=0;exitDx=160;exitDy=55;exitPerimeter=0;entryX=0;entryY=0;entryDx=80;entryDy=0;entryPerimeter=0;" edge="1" parent="1" source="G5W-g5Hc8PgUAYtpd-jO-62" target="G5W-g5Hc8PgUAYtpd-jO-28">
          <mxGeometry width="160" relative="1" as="geometry">
            <mxPoint x="420" y="-415" as="sourcePoint" />
            <mxPoint x="490" y="70" as="targetPoint" />
          </mxGeometry>
        </mxCell>
        <mxCell id="G5W-g5Hc8PgUAYtpd-jO-69" value="historial" style="shape=folder;tabWidth=80;tabHeight=20;tabPosition=left;strokeWidth=2;html=1;whiteSpace=wrap;align=center;" vertex="1" parent="1">
          <mxGeometry x="493" y="-260" width="160" height="90" as="geometry" />
        </mxCell>
        <mxCell id="G5W-g5Hc8PgUAYtpd-jO-70" value="especialidad" style="shape=folder;tabWidth=80;tabHeight=20;tabPosition=left;strokeWidth=2;html=1;whiteSpace=wrap;align=center;" vertex="1" parent="1">
          <mxGeometry x="493" y="-130" width="160" height="90" as="geometry" />
        </mxCell>
        <mxCell id="G5W-g5Hc8PgUAYtpd-jO-71" value="horario" style="shape=folder;tabWidth=80;tabHeight=20;tabPosition=left;strokeWidth=2;html=1;whiteSpace=wrap;align=center;" vertex="1" parent="1">
          <mxGeometry x="493" y="-380" width="160" height="90" as="geometry" />
        </mxCell>
        <mxCell id="G5W-g5Hc8PgUAYtpd-jO-72" value="historial" style="shape=folder;tabWidth=80;tabHeight=20;tabPosition=left;strokeWidth=2;html=1;whiteSpace=wrap;align=center;" vertex="1" parent="1">
          <mxGeometry x="493" y="-500" width="160" height="90" as="geometry" />
        </mxCell>
        <mxCell id="G5W-g5Hc8PgUAYtpd-jO-73" value="especialidad" style="shape=folder;tabWidth=80;tabHeight=20;tabPosition=left;strokeWidth=2;html=1;whiteSpace=wrap;align=center;" vertex="1" parent="1">
          <mxGeometry x="493" y="-620" width="160" height="90" as="geometry" />
        </mxCell>
        <mxCell id="G5W-g5Hc8PgUAYtpd-jO-75" value="" style="edgeStyle=orthogonalEdgeStyle;html=1;endSize=12;endArrow=block;endFill=0;dashed=1;rounded=0;exitX=0;exitY=0;exitDx=160;exitDy=55;exitPerimeter=0;entryX=0;entryY=0;entryDx=80;entryDy=0;entryPerimeter=0;" edge="1" parent="1" source="G5W-g5Hc8PgUAYtpd-jO-70" target="G5W-g5Hc8PgUAYtpd-jO-33">
          <mxGeometry width="160" relative="1" as="geometry">
            <mxPoint x="670" y="-80" as="sourcePoint" />
            <mxPoint x="740" y="35" as="targetPoint" />
          </mxGeometry>
        </mxCell>
        <mxCell id="G5W-g5Hc8PgUAYtpd-jO-76" value="" style="edgeStyle=orthogonalEdgeStyle;html=1;endSize=12;endArrow=block;endFill=0;dashed=1;rounded=0;exitX=0;exitY=0;exitDx=160;exitDy=55;exitPerimeter=0;entryX=0;entryY=0;entryDx=80;entryDy=0;entryPerimeter=0;" edge="1" parent="1" source="G5W-g5Hc8PgUAYtpd-jO-69" target="G5W-g5Hc8PgUAYtpd-jO-33">
          <mxGeometry width="160" relative="1" as="geometry">
            <mxPoint x="663" y="-65" as="sourcePoint" />
            <mxPoint x="757" y="50" as="targetPoint" />
          </mxGeometry>
        </mxCell>
        <mxCell id="G5W-g5Hc8PgUAYtpd-jO-77" value="" style="edgeStyle=orthogonalEdgeStyle;html=1;endSize=12;endArrow=block;endFill=0;dashed=1;rounded=0;exitX=0;exitY=0;exitDx=160;exitDy=55;exitPerimeter=0;entryX=0;entryY=0;entryDx=80;entryDy=0;entryPerimeter=0;" edge="1" parent="1" source="G5W-g5Hc8PgUAYtpd-jO-71" target="G5W-g5Hc8PgUAYtpd-jO-33">
          <mxGeometry width="160" relative="1" as="geometry">
            <mxPoint x="667" y="-320" as="sourcePoint" />
            <mxPoint x="761" y="-205" as="targetPoint" />
          </mxGeometry>
        </mxCell>
        <mxCell id="G5W-g5Hc8PgUAYtpd-jO-78" value="" style="edgeStyle=orthogonalEdgeStyle;html=1;endSize=12;endArrow=block;endFill=0;dashed=1;rounded=0;exitX=0;exitY=0;exitDx=160;exitDy=55;exitPerimeter=0;entryX=0;entryY=0;entryDx=80;entryDy=0;entryPerimeter=0;" edge="1" parent="1" source="G5W-g5Hc8PgUAYtpd-jO-72" target="G5W-g5Hc8PgUAYtpd-jO-33">
          <mxGeometry width="160" relative="1" as="geometry">
            <mxPoint x="683" y="-430" as="sourcePoint" />
            <mxPoint x="777" y="-315" as="targetPoint" />
          </mxGeometry>
        </mxCell>
        <mxCell id="G5W-g5Hc8PgUAYtpd-jO-79" value="" style="edgeStyle=orthogonalEdgeStyle;html=1;endSize=12;endArrow=block;endFill=0;dashed=1;rounded=0;exitX=0;exitY=0;exitDx=160;exitDy=55;exitPerimeter=0;entryX=0;entryY=0;entryDx=80;entryDy=0;entryPerimeter=0;" edge="1" parent="1" source="G5W-g5Hc8PgUAYtpd-jO-73" target="G5W-g5Hc8PgUAYtpd-jO-33">
          <mxGeometry width="160" relative="1" as="geometry">
            <mxPoint x="670" y="-560" as="sourcePoint" />
            <mxPoint x="764" y="-445" as="targetPoint" />
          </mxGeometry>
        </mxCell>
      </root>
    </mxGraphModel>
  </diagram>
</mxfile>
